<mxfile host="app.diagrams.net" modified="2022-11-19T09:50:33.706Z" agent="5.0 (Macintosh; Intel Mac OS X 10_15_7) AppleWebKit/537.36 (KHTML, like Gecko) Chrome/107.0.0.0 Safari/537.36" etag="nW_uIbdjOTGOuF6_BsH3" version="20.5.3" type="github">
  <diagram id="f8UJVKtSFRW_fhdTu_99" name="第 1 页">
    <mxGraphModel dx="959" dy="614" grid="1" gridSize="10" guides="1" tooltips="1" connect="1" arrows="1" fold="1" page="1" pageScale="1" pageWidth="827" pageHeight="1169" math="0" shadow="0">
      <root>
        <mxCell id="0" />
        <mxCell id="1" parent="0" />
        <mxCell id="Zutxu7cNW-hXtDQyblC0-17" style="edgeStyle=orthogonalEdgeStyle;rounded=0;orthogonalLoop=1;jettySize=auto;html=1;entryX=0.5;entryY=0;entryDx=0;entryDy=0;fontSize=14;" edge="1" parent="1" source="Zutxu7cNW-hXtDQyblC0-1" target="Zutxu7cNW-hXtDQyblC0-11">
          <mxGeometry relative="1" as="geometry" />
        </mxCell>
        <mxCell id="Zutxu7cNW-hXtDQyblC0-18" value="查询&lt;br&gt;Provider服务实例&lt;br&gt;IP地址、端口号" style="edgeLabel;html=1;align=center;verticalAlign=middle;resizable=0;points=[];fontSize=14;" vertex="1" connectable="0" parent="Zutxu7cNW-hXtDQyblC0-17">
          <mxGeometry x="0.11" y="2" relative="1" as="geometry">
            <mxPoint as="offset" />
          </mxGeometry>
        </mxCell>
        <mxCell id="Zutxu7cNW-hXtDQyblC0-1" value="&lt;font style=&quot;font-size: 14px;&quot;&gt;ZooKeeper&lt;br&gt;单节点&lt;br&gt;127.0.0.1:2181&lt;/font&gt;" style="rounded=0;whiteSpace=wrap;html=1;" vertex="1" parent="1">
          <mxGeometry x="310" y="40" width="120" height="60" as="geometry" />
        </mxCell>
        <mxCell id="Zutxu7cNW-hXtDQyblC0-3" style="edgeStyle=orthogonalEdgeStyle;rounded=0;orthogonalLoop=1;jettySize=auto;html=1;exitX=0.5;exitY=0;exitDx=0;exitDy=0;entryX=1;entryY=0.5;entryDx=0;entryDy=0;fontSize=14;" edge="1" parent="1" source="Zutxu7cNW-hXtDQyblC0-2" target="Zutxu7cNW-hXtDQyblC0-1">
          <mxGeometry relative="1" as="geometry" />
        </mxCell>
        <mxCell id="Zutxu7cNW-hXtDQyblC0-4" value="服务实例注册&lt;br&gt;服务名称、IP地址、端口号" style="edgeLabel;html=1;align=center;verticalAlign=middle;resizable=0;points=[];fontSize=14;" vertex="1" connectable="0" parent="Zutxu7cNW-hXtDQyblC0-3">
          <mxGeometry x="-0.1739" y="3" relative="1" as="geometry">
            <mxPoint as="offset" />
          </mxGeometry>
        </mxCell>
        <mxCell id="Zutxu7cNW-hXtDQyblC0-2" value="&lt;font style=&quot;font-size: 14px;&quot;&gt;Provider服务实例&lt;/font&gt;" style="rounded=0;whiteSpace=wrap;html=1;" vertex="1" parent="1">
          <mxGeometry x="530" y="184" width="140" height="70" as="geometry" />
        </mxCell>
        <mxCell id="Zutxu7cNW-hXtDQyblC0-11" value="&lt;font style=&quot;font-size: 14px;&quot;&gt;Consumer服务实例&lt;/font&gt;" style="rounded=0;whiteSpace=wrap;html=1;" vertex="1" parent="1">
          <mxGeometry x="100" y="184" width="150" height="70" as="geometry" />
        </mxCell>
        <mxCell id="Zutxu7cNW-hXtDQyblC0-28" style="edgeStyle=orthogonalEdgeStyle;rounded=0;orthogonalLoop=1;jettySize=auto;html=1;fontSize=14;" edge="1" parent="1" source="Zutxu7cNW-hXtDQyblC0-12" target="Zutxu7cNW-hXtDQyblC0-25">
          <mxGeometry relative="1" as="geometry" />
        </mxCell>
        <mxCell id="Zutxu7cNW-hXtDQyblC0-29" value="建立连接" style="edgeLabel;html=1;align=center;verticalAlign=middle;resizable=0;points=[];fontSize=14;" vertex="1" connectable="0" parent="Zutxu7cNW-hXtDQyblC0-28">
          <mxGeometry x="-0.17" y="1" relative="1" as="geometry">
            <mxPoint as="offset" />
          </mxGeometry>
        </mxCell>
        <mxCell id="Zutxu7cNW-hXtDQyblC0-30" value="按照协议&lt;br&gt;封装请求数据&lt;br&gt;sayHello" style="edgeStyle=orthogonalEdgeStyle;rounded=0;orthogonalLoop=1;jettySize=auto;html=1;exitX=0.5;exitY=1;exitDx=0;exitDy=0;entryX=0.5;entryY=1;entryDx=0;entryDy=0;fontSize=14;" edge="1" parent="1" source="Zutxu7cNW-hXtDQyblC0-12" target="Zutxu7cNW-hXtDQyblC0-25">
          <mxGeometry relative="1" as="geometry" />
        </mxCell>
        <mxCell id="Zutxu7cNW-hXtDQyblC0-12" value="网络&lt;br&gt;连接" style="rounded=0;whiteSpace=wrap;html=1;fontSize=14;" vertex="1" parent="1">
          <mxGeometry x="240" y="199" width="50" height="35" as="geometry" />
        </mxCell>
        <mxCell id="Zutxu7cNW-hXtDQyblC0-34" style="edgeStyle=orthogonalEdgeStyle;rounded=0;orthogonalLoop=1;jettySize=auto;html=1;entryX=0.5;entryY=1;entryDx=0;entryDy=0;fontSize=14;" edge="1" parent="1">
          <mxGeometry relative="1" as="geometry">
            <mxPoint x="523" y="234" as="sourcePoint" />
            <mxPoint x="658" y="294" as="targetPoint" />
            <Array as="points">
              <mxPoint x="523" y="314" />
              <mxPoint x="658" y="314" />
            </Array>
          </mxGeometry>
        </mxCell>
        <mxCell id="Zutxu7cNW-hXtDQyblC0-35" value="本地调用" style="edgeLabel;html=1;align=center;verticalAlign=middle;resizable=0;points=[];fontSize=14;" vertex="1" connectable="0" parent="Zutxu7cNW-hXtDQyblC0-34">
          <mxGeometry x="-0.0383" y="1" relative="1" as="geometry">
            <mxPoint x="24" as="offset" />
          </mxGeometry>
        </mxCell>
        <mxCell id="Zutxu7cNW-hXtDQyblC0-38" style="edgeStyle=orthogonalEdgeStyle;rounded=0;orthogonalLoop=1;jettySize=auto;html=1;exitX=0.5;exitY=0;exitDx=0;exitDy=0;entryX=0.5;entryY=0;entryDx=0;entryDy=0;fontSize=14;" edge="1" parent="1" source="Zutxu7cNW-hXtDQyblC0-25" target="Zutxu7cNW-hXtDQyblC0-12">
          <mxGeometry relative="1" as="geometry" />
        </mxCell>
        <mxCell id="Zutxu7cNW-hXtDQyblC0-39" value="按照协议&lt;br&gt;封装响应数据" style="edgeLabel;html=1;align=center;verticalAlign=middle;resizable=0;points=[];fontSize=14;" vertex="1" connectable="0" parent="Zutxu7cNW-hXtDQyblC0-38">
          <mxGeometry x="0.0483" y="-3" relative="1" as="geometry">
            <mxPoint as="offset" />
          </mxGeometry>
        </mxCell>
        <mxCell id="Zutxu7cNW-hXtDQyblC0-25" value="网络&lt;br&gt;监听" style="rounded=0;whiteSpace=wrap;html=1;fontSize=14;" vertex="1" parent="1">
          <mxGeometry x="490" y="199" width="50" height="35" as="geometry" />
        </mxCell>
        <mxCell id="Zutxu7cNW-hXtDQyblC0-31" value="DemoServiceImpl&lt;br&gt;sayHello" style="rounded=0;whiteSpace=wrap;html=1;fontSize=14;" vertex="1" parent="1">
          <mxGeometry x="590" y="244" width="130" height="50" as="geometry" />
        </mxCell>
        <mxCell id="Zutxu7cNW-hXtDQyblC0-32" style="edgeStyle=orthogonalEdgeStyle;rounded=0;orthogonalLoop=1;jettySize=auto;html=1;exitX=0.5;exitY=1;exitDx=0;exitDy=0;fontSize=14;" edge="1" parent="1" source="Zutxu7cNW-hXtDQyblC0-31" target="Zutxu7cNW-hXtDQyblC0-31">
          <mxGeometry relative="1" as="geometry" />
        </mxCell>
      </root>
    </mxGraphModel>
  </diagram>
</mxfile>
